<svg version="1.1" viewBox="0.0 0.0 48.0 16.0" fill="none" stroke="none" stroke-linecap="square" stroke-miterlimit="10" xmlns:xlink="http://www.w3.org/1999/xlink" xmlns="http://www.w3.org/2000/svg"><clipPath id="p.0"><path d="m0 0l48.0 0l0 16.0l-48.0 0l0 -16.0z" clip-rule="nonzero"/></clipPath><g clip-path="url(#p.0)"><path fill="#000000" fill-opacity="0.0" d="m0 0l48.0 0l0 16.0l-48.0 0z" fill-rule="evenodd"/><defs><linearGradient id="p.1" gradientUnits="userSpaceOnUse" gradientTransform="matrix(3.8638457044002528 0.0 0.0 3.8638457044002528 0.0 0.0)" spreadMethod="pad" x1="0.13653729871182785" y1="0.13649336086860078" x2="0.13652331613326846" y2="4.000339065243553"><stop offset="0.0" stop-color="#696969"/><stop offset="1.0" stop-color="#1d1d1d"/></linearGradient></defs><path fill="url(#p.1)" d="m0.52755904 3.0157979c0 -1.3742163 1.1140225 -2.4882388 2.4882388 -2.4882388l41.92116 0c0.65992355 0 1.2928162 0.26215297 1.759449 0.72878826c0.46663666 0.46663535 0.7287903 1.0995287 0.7287903 1.7594506l0 9.952657c0 1.3742161 -1.1140213 2.4882383 -2.4882393 2.4882383l-41.92116 0c-1.3742163 0 -2.4882388 -1.1140223 -2.4882388 -2.4882383z" fill-rule="evenodd"/><path stroke="#000000" stroke-width="1.0" stroke-linejoin="round" stroke-linecap="butt" d="m0.52755904 3.0157979c0 -1.3742163 1.1140225 -2.4882388 2.4882388 -2.4882388l41.92116 0c0.65992355 0 1.2928162 0.26215297 1.759449 0.72878826c0.46663666 0.46663535 0.7287903 1.0995287 0.7287903 1.7594506l0 9.952657c0 1.3742161 -1.1140213 2.4882383 -2.4882393 2.4882383l-41.92116 0c-1.3742163 0 -2.4882388 -1.1140223 -2.4882388 -2.4882383z" fill-rule="evenodd"/></g></svg>